<svg width="26" height="26" viewBox="0 0 26 26" fill="none" xmlns="http://www.w3.org/2000/svg">
<path d="M13.0003 0C8.74901 0 5.26501 3.4736 5.26501 7.71316C5.26501 9.35584 5.78969 10.8826 6.67759 12.1373L12.0562 21.4357C12.8094 22.4198 13.3102 22.2329 13.9365 21.3837L19.8692 11.2879C19.9888 11.0711 20.0829 10.8402 20.1648 10.6044C20.5413 9.68694 20.7349 8.70481 20.7348 7.71316C20.735 3.4736 17.2521 0 13.0003 0ZM13.0003 3.614C15.2898 3.614 17.1104 5.43036 17.1104 7.71316C17.1104 9.99596 15.2898 11.8115 13.0003 11.8115C10.711 11.8115 8.88967 9.99622 8.88967 7.71316C8.88967 5.43036 10.711 3.61426 13.0003 3.61426" fill="white" fill-opacity="0.75"/>
<path d="M17.9174 12.7163L17.9049 12.7491C17.9088 12.7392 17.9119 12.729 17.9158 12.7192L17.9174 12.7163ZM8.84154 17.955C5.16878 18.474 2.59998 19.7155 2.59998 21.543C2.59998 24.0047 6.89206 26.0002 13 26.0002C19.1079 26.0002 23.4 24.0047 23.4 21.543C23.4 19.7155 20.8314 18.474 17.1589 17.955L16.6501 18.8214C19.4181 19.2054 21.32 20.0124 21.32 20.9489C21.32 22.2619 17.595 23.3261 13 23.3261C8.405 23.3261 4.67998 22.2619 4.67998 20.9489C4.67972 20.0155 6.56914 19.2093 9.34568 18.8237C9.17798 18.5341 9.0095 18.2449 8.84154 17.955Z" fill="white" fill-opacity="0.75"/>
</svg>
