<svg width="26" height="26" viewBox="0 0 26 26" fill="none" xmlns="http://www.w3.org/2000/svg">
<g clip-path="url(#clip0_45_19)">
<path d="M15.08 13.2998C15.0721 13.7116 14.9422 14.1119 14.7066 14.4497C14.471 14.7876 14.1404 15.048 13.7567 15.1978C13.3729 15.3475 12.9534 15.38 12.5512 15.2911C12.1489 15.2022 11.7822 14.9959 11.4974 14.6983C11.2125 14.4008 11.0225 14.0253 10.9513 13.6196C10.8801 13.2139 10.931 12.7962 11.0975 12.4195C11.264 12.0427 11.5386 11.7239 11.8865 11.5034C12.2344 11.2829 12.64 11.1706 13.0518 11.1808C13.599 11.2011 14.1168 11.4337 14.4954 11.8292C14.8741 12.2248 15.0837 12.7523 15.08 13.2998Z" fill="url(#paint0_linear_45_19)"/>
<path d="M16.629 6.75977H9.63091C8.93845 6.75977 8.27435 7.03713 7.78471 7.53083C7.29507 8.02453 7.01999 8.69414 7.01999 9.39234V16.6072C7.01999 16.9529 7.08752 17.2952 7.21873 17.6146C7.34994 17.934 7.54226 18.2242 7.78471 18.4687C8.02716 18.7132 8.31498 18.9071 8.63175 19.0394C8.94852 19.1717 9.28804 19.2398 9.63091 19.2398H16.629C16.9719 19.2398 17.3114 19.1717 17.6282 19.0394C17.945 18.9071 18.2328 18.7132 18.4752 18.4687C18.7177 18.2242 18.91 17.934 19.0412 17.6146C19.1724 17.2952 19.24 16.9529 19.24 16.6072V9.40534C19.2413 9.05863 19.1748 8.71506 19.0442 8.39431C18.9137 8.07357 18.7216 7.78195 18.4791 7.53619C18.2365 7.29042 17.9482 7.09533 17.6308 6.9621C17.3133 6.82886 16.9729 6.76011 16.629 6.75977ZM13.1293 16.8049C12.4366 16.8207 11.7549 16.628 11.1712 16.2513C10.5875 15.8747 10.1284 15.3313 9.85238 14.6905C9.57637 14.0496 9.49599 13.3403 9.62151 12.6532C9.74703 11.9661 10.0728 11.3322 10.5571 10.8326C11.0415 10.3329 11.6625 9.99014 12.3409 9.84793C13.0194 9.70572 13.7244 9.77055 14.3662 10.0342C15.0079 10.2978 15.5572 10.7482 15.9439 11.3279C16.3306 11.9077 16.5373 12.5905 16.5375 13.2892C16.5427 13.7457 16.4588 14.1988 16.2903 14.6226C16.1219 15.0463 15.8723 15.4325 15.5558 15.759C15.2393 16.0855 14.8621 16.3459 14.4458 16.5254C14.0294 16.7048 13.5821 16.7998 13.1293 16.8049ZM16.9167 9.77474C16.8316 9.77475 16.7473 9.75765 16.6688 9.72441C16.5904 9.69118 16.5192 9.6425 16.4597 9.58121C16.4001 9.51991 16.3532 9.44725 16.3218 9.36747C16.2904 9.28769 16.2752 9.2024 16.2769 9.11659C16.2769 8.94204 16.3457 8.77464 16.4681 8.65122C16.5905 8.52779 16.7565 8.45845 16.9296 8.45845C17.1027 8.45845 17.2688 8.52779 17.3912 8.65122C17.5136 8.77464 17.5823 8.94204 17.5823 9.11659C17.5849 9.20951 17.5675 9.30189 17.5314 9.3874C17.4953 9.47291 17.4412 9.54954 17.373 9.61205C17.3048 9.67455 17.2239 9.72144 17.136 9.74952C17.0482 9.7776 16.9553 9.7862 16.8638 9.77474H16.9167Z" fill="url(#paint1_linear_45_19)"/>
<path d="M13.065 0.000162724C9.61723 -0.0170761 6.30382 1.33601 3.85369 3.76177C1.40356 6.18752 0.0174016 9.48723 0.000162724 12.935C-0.0170761 16.3828 1.33601 19.6962 3.76177 22.1463C6.18752 24.5964 9.48723 25.9826 12.935 25.9998C14.6422 26.0084 16.3343 25.6806 17.9148 25.0352C19.4953 24.3897 20.9331 23.4393 22.1463 22.2382C23.3595 21.0371 24.3242 19.6088 24.9854 18.0349C25.6466 16.4609 25.9913 14.7722 25.9998 13.065C26.0084 11.3578 25.6806 9.66571 25.0352 8.08523C24.3897 6.50475 23.4393 5.06687 22.2382 3.85369C21.0371 2.64051 19.6088 1.67578 18.0349 1.01459C16.4609 0.353401 14.7722 0.00869854 13.065 0.000162724ZM20.9598 16.5126C20.9634 17.0958 20.8512 17.6739 20.6298 18.2134C20.4083 18.753 20.0819 19.2432 19.6696 19.6557C19.2572 20.0681 18.7671 20.3946 18.2276 20.6163C17.6882 20.8379 17.1101 20.9503 16.5269 20.9468H9.60574C9.02262 20.9501 8.44465 20.8377 7.90527 20.6161C7.36588 20.3945 6.87581 20.0681 6.46342 19.6558C6.05102 19.2435 5.7245 18.7536 5.50274 18.2142C5.28098 17.6749 5.16839 17.097 5.1715 16.5139V9.59144C5.16788 9.00823 5.28005 8.43009 5.50153 7.89055C5.72301 7.35102 6.04938 6.86081 6.46172 6.44834C6.87406 6.03588 7.36418 5.70936 7.90365 5.48773C8.44312 5.26609 9.02123 5.15375 9.60444 5.1572H16.5269C17.11 5.15375 17.688 5.26605 18.2273 5.48761C18.7667 5.70916 19.2568 6.03556 19.6691 6.44789C20.0814 6.86021 20.4078 7.35027 20.6294 7.88965C20.8509 8.42904 20.9633 9.00704 20.9598 9.59014V16.5126Z" fill="url(#paint2_linear_45_19)"/>
</g>
<defs>
<linearGradient id="paint0_linear_45_19" x1="11.2731" y1="11.5922" x2="15.0994" y2="15.5351" gradientUnits="userSpaceOnUse">
<stop stop-color="#24A9E0"/>
<stop offset="1" stop-color="#145C7A"/>
</linearGradient>
<linearGradient id="paint1_linear_45_19" x1="8.05718" y1="7.99594" x2="19.5408" y2="19.5828" gradientUnits="userSpaceOnUse">
<stop stop-color="#24A9E0"/>
<stop offset="1" stop-color="#145C7A"/>
</linearGradient>
<linearGradient id="paint2_linear_45_19" x1="2.20679" y1="2.57537" x2="26.1211" y2="27.2181" gradientUnits="userSpaceOnUse">
<stop stop-color="#24A9E0"/>
<stop offset="1" stop-color="#145C7A"/>
</linearGradient>
<clipPath id="clip0_45_19">
<rect width="26" height="26" fill="white"/>
</clipPath>
</defs>
</svg>
