<svg width="26" height="26" viewBox="0 0 26 26" fill="none" xmlns="http://www.w3.org/2000/svg">
<g clip-path="url(#clip0_90_841)">
<path d="M15.0799 13.2996C15.072 13.7115 14.9421 14.1117 14.7065 14.4496C14.4709 14.7875 14.1403 15.0478 13.7566 15.1976C13.3728 15.3474 12.9533 15.3799 12.5511 15.291C12.1489 15.2021 11.7821 14.9957 11.4973 14.6982C11.2125 14.4006 11.0224 14.0252 10.9512 13.6195C10.88 13.2138 10.9309 12.7961 11.0974 12.4193C11.2639 12.0426 11.5385 11.7237 11.8864 11.5032C12.2343 11.2827 12.6399 11.1704 13.0517 11.1806C13.5989 11.2009 14.1167 11.4335 14.4954 11.8291C14.874 12.2246 15.0836 12.7521 15.0799 13.2996Z" fill="url(#paint0_linear_90_841)"/>
<path d="M16.6291 6.76H9.63094C8.93848 6.76 8.27438 7.03736 7.78474 7.53106C7.2951 8.02477 7.02002 8.69437 7.02002 9.39257V16.6074C7.02002 16.9531 7.08755 17.2955 7.21876 17.6149C7.34997 17.9343 7.54229 18.2245 7.78474 18.4689C8.02719 18.7134 8.31501 18.9073 8.63178 19.0396C8.94855 19.1719 9.28807 19.24 9.63094 19.24H16.6291C16.9719 19.24 17.3115 19.1719 17.6282 19.0396C17.945 18.9073 18.2328 18.7134 18.4753 18.4689C18.7177 18.2245 18.91 17.9343 19.0413 17.6149C19.1725 17.2955 19.24 16.9531 19.24 16.6074V9.40558C19.2414 9.05887 19.1748 8.71529 19.0443 8.39455C18.9137 8.0738 18.7216 7.78219 18.4791 7.53642C18.2365 7.29065 17.9483 7.09556 17.6308 6.96233C17.3134 6.8291 16.9729 6.76034 16.6291 6.76ZM13.1294 16.8051C12.4366 16.8209 11.7549 16.6282 11.1712 16.2516C10.5876 15.875 10.1284 15.3316 9.85241 14.6907C9.5764 14.0498 9.49602 13.3406 9.62154 12.6534C9.74706 11.9663 10.0728 11.3325 10.5571 10.8328C11.0415 10.3332 11.6625 9.99037 12.341 9.84816C13.0194 9.70595 13.7245 9.77079 14.3662 10.0344C15.0079 10.298 15.5572 10.7484 15.9439 11.3282C16.3307 11.9079 16.5373 12.5907 16.5375 13.2894C16.5428 13.7459 16.4588 14.199 16.2904 14.6228C16.1219 15.0466 15.8723 15.4327 15.5558 15.7592C15.2393 16.0857 14.8621 16.3461 14.4458 16.5256C14.0295 16.705 13.5821 16.8 13.1294 16.8051ZM16.9167 9.77497C16.8316 9.77499 16.7474 9.75788 16.6689 9.72465C16.5904 9.69142 16.5193 9.64273 16.4597 9.58144C16.4001 9.52015 16.3532 9.44749 16.3219 9.36771C16.2905 9.28793 16.2752 9.20264 16.2769 9.11683C16.2769 8.94228 16.3457 8.77488 16.4681 8.65145C16.5905 8.52803 16.7565 8.45868 16.9296 8.45868C17.1028 8.45868 17.2688 8.52803 17.3912 8.65145C17.5136 8.77488 17.5824 8.94228 17.5824 9.11683C17.5849 9.20974 17.5676 9.30212 17.5314 9.38763C17.4953 9.47315 17.4413 9.54978 17.373 9.61228C17.3048 9.67478 17.224 9.72168 17.1361 9.74976C17.0482 9.77784 16.9553 9.78644 16.8639 9.77497H16.9167Z" fill="url(#paint1_linear_90_841)"/>
<path d="M13.065 0.000162724C9.61723 -0.0170761 6.30382 1.33601 3.85369 3.76177C1.40356 6.18752 0.0174016 9.48723 0.000162724 12.935C-0.0170761 16.3828 1.33601 19.6962 3.76177 22.1463C6.18752 24.5964 9.48723 25.9826 12.935 25.9998C14.6422 26.0084 16.3343 25.6806 17.9148 25.0352C19.4953 24.3897 20.9331 23.4393 22.1463 22.2382C23.3595 21.0371 24.3242 19.6088 24.9854 18.0349C25.6466 16.4609 25.9913 14.7722 25.9998 13.065C26.0084 11.3578 25.6806 9.66571 25.0352 8.08523C24.3897 6.50475 23.4393 5.06687 22.2382 3.85369C21.0371 2.64051 19.6088 1.67578 18.0349 1.01459C16.4609 0.353401 14.7722 0.00869854 13.065 0.000162724ZM20.9598 16.5126C20.9634 17.0958 20.8512 17.6739 20.6298 18.2134C20.4083 18.753 20.0819 19.2432 19.6696 19.6557C19.2572 20.0681 18.7671 20.3946 18.2276 20.6163C17.6882 20.8379 17.1101 20.9503 16.5269 20.9468H9.60574C9.02262 20.9501 8.44465 20.8377 7.90527 20.6161C7.36588 20.3945 6.87581 20.0681 6.46342 19.6558C6.05102 19.2435 5.7245 18.7536 5.50274 18.2142C5.28098 17.6749 5.16839 17.097 5.1715 16.5139V9.59144C5.16788 9.00823 5.28005 8.43009 5.50153 7.89055C5.72301 7.35102 6.04938 6.86081 6.46172 6.44834C6.87406 6.03588 7.36418 5.70936 7.90365 5.48773C8.44312 5.26609 9.02123 5.15375 9.60444 5.1572H16.5269C17.11 5.15375 17.688 5.26605 18.2273 5.48761C18.7667 5.70916 19.2568 6.03556 19.6691 6.44789C20.0814 6.86021 20.4078 7.35027 20.6294 7.88965C20.8509 8.42904 20.9633 9.00704 20.9598 9.59014V16.5126Z" fill="url(#paint2_linear_90_841)"/>
</g>
<defs>
<linearGradient id="paint0_linear_90_841" x1="11.273" y1="11.5921" x2="15.0993" y2="15.5349" gradientUnits="userSpaceOnUse">
<stop stop-color="#24A9E0"/>
<stop offset="1" stop-color="#145C7A"/>
</linearGradient>
<linearGradient id="paint1_linear_90_841" x1="8.05721" y1="7.99618" x2="19.5408" y2="19.583" gradientUnits="userSpaceOnUse">
<stop stop-color="#24A9E0"/>
<stop offset="1" stop-color="#145C7A"/>
</linearGradient>
<linearGradient id="paint2_linear_90_841" x1="2.20679" y1="2.57537" x2="26.1211" y2="27.2181" gradientUnits="userSpaceOnUse">
<stop stop-color="#24A9E0"/>
<stop offset="1" stop-color="#145C7A"/>
</linearGradient>
<clipPath id="clip0_90_841">
<rect width="26" height="26" fill="white"/>
</clipPath>
</defs>
</svg>
