<svg width="26" height="21" viewBox="0 0 26 21" fill="none" xmlns="http://www.w3.org/2000/svg">
<path d="M12.5797 3.4209L13 4.07283L13.4202 3.4209C14.5676 1.64103 16.5944 0.5 18.9091 0.5C22.539 0.5 25.5 3.4322 25.5 7C25.5 8.59761 24.7555 10.2431 23.5674 11.8425C22.3833 13.4364 20.7935 14.9375 19.1858 16.236C17.5807 17.5325 15.9731 18.6148 14.7653 19.3735C14.1619 19.7525 13.6595 20.0501 13.3087 20.2525C13.1872 20.3226 13.0839 20.3812 13.0009 20.4279C12.9179 20.3808 12.8144 20.3216 12.6926 20.2508C12.3418 20.047 11.8393 19.7474 11.2359 19.366C10.0279 18.6027 8.42005 17.5148 6.8147 16.2146C5.2068 14.9123 3.61666 13.4091 2.43238 11.8175C1.24379 10.2202 0.5 8.5822 0.5 7C0.5 3.43221 3.46095 0.5 7.09091 0.5C9.40559 0.5 11.4324 1.64103 12.5797 3.4209Z" stroke="url(#paint0_linear_45_24)"/>
<defs>
<linearGradient id="paint0_linear_45_24" x1="2.20679" y1="2.0801" x2="20.9715" y2="26.0202" gradientUnits="userSpaceOnUse">
<stop stop-color="#24A9E0"/>
<stop offset="1" stop-color="#145C7A"/>
</linearGradient>
</defs>
</svg>
