<svg width="143" height="141" viewBox="0 0 143 141" fill="none" xmlns="http://www.w3.org/2000/svg">
<path d="M71.746 133.872L65.6399 110.687L71.746 111.186V133.872Z" fill="#24A9E0"/>
<path d="M136.114 69.8027L112.453 63.8196L112.962 69.8027L136.114 69.8027Z" fill="#24A9E0"/>
<path d="M6.61523 69.8027L30.2763 63.8196L29.7675 69.8027L6.61523 69.8027Z" fill="#24A9E0"/>
<path d="M112.505 76.3245C111.22 84.7719 107.269 92.6133 101.204 98.7477C95.1397 104.882 86.9361 109.161 78.3602 110.687L78.3602 103.707C85.533 102.431 91.2289 99.2246 96.3012 94.0938C101.374 88.963 104.762 83.3498 105.836 76.2843L112.505 76.3245Z" fill="#24A9E0"/>
<path d="M78.3607 29.9155C87.9708 31.5326 96.6395 36.4881 102.971 43.7544C109.302 51.0206 112.837 60.2302 112.96 69.7839L106.135 69.8686C106.031 61.8779 103.075 54.175 97.7795 48.0975C92.4839 42.0201 86.3986 38.4976 78.3607 37.145L78.3607 29.9155Z" fill="#24A9E0"/>
<path d="M71.7448 111.186C62.2033 111.245 52.6865 108.098 45.2257 102.269C37.7649 96.4411 31.0397 86.2564 29.5131 76.2846L36.3828 76.2845C38.1112 83.9188 43.2409 92.1646 49.4811 97.0394C55.7213 101.914 63.7644 104.504 71.7449 104.454L71.7448 111.186Z" fill="#24A9E0"/>
<path d="M71.746 6.73108L65.6399 29.9156L71.746 29.417V6.73108Z" fill="#24A9E0"/>
<path d="M29.5148 69.8018C29.5817 64.4331 30.7272 59.13 32.8858 54.1951C35.0443 49.2603 38.1738 44.7903 42.0953 41.0405C46.0169 37.2907 50.6538 34.3345 55.7414 32.3406C60.8289 30.3468 66.2675 29.3543 71.7464 29.4199L71.663 36.1082C67.0804 36.0533 62.5316 36.8834 58.2764 38.5511C54.0212 40.2187 50.1429 42.6913 46.8629 45.8277C43.5829 48.964 40.9655 52.7026 39.16 56.8301C37.3546 60.9576 36.3965 65.3932 36.3405 69.8835L29.5148 69.8018Z" fill="#24A9E0"/>
<ellipse cx="71.7467" cy="1.49577" rx="1.52652" ry="1.49577" fill="#24A9E0"/>
<ellipse cx="71.7467" cy="139.107" rx="1.52652" ry="1.49577" fill="#24A9E0"/>
<ellipse cx="141.458" cy="69.8028" rx="1.52652" ry="1.49577" fill="#24A9E0"/>
<ellipse cx="1.52652" cy="69.8028" rx="1.52652" ry="1.49577" fill="#24A9E0"/>
<g clip-path="url(#clip0_2_756)">
<path fill-rule="evenodd" clip-rule="evenodd" d="M71.7262 51.2901C71.4392 51.2886 71.2818 51.4804 71.2377 51.7047L67.0155 65.6652C62.2512 67.0468 57.4825 68.4223 52.7263 69.8156C52.4788 69.8884 52.3442 70.0331 52.345 70.2901C52.3457 70.5466 52.5758 70.7001 52.7893 70.7645L67.0012 74.8903C68.4166 79.575 69.8243 84.2635 71.2513 88.9398C71.3255 89.1823 71.4732 89.3142 71.7354 89.3134C71.9972 89.3127 72.1539 89.0872 72.2196 88.8781L76.4445 74.905L90.7202 70.7607C91.0041 70.6701 91.1483 70.5621 91.1495 70.281C91.1514 69.9998 90.9557 69.8456 90.7268 69.8024L76.431 65.6512L72.2157 51.7111C72.1233 51.433 72.0131 51.2917 71.7262 51.2905M71.7474 67.4598C72.5167 67.4598 73.2544 67.7592 73.7983 68.2922C74.3422 68.8252 74.6478 69.5481 74.6478 70.3018C74.6478 71.0555 74.3422 71.7784 73.7983 72.3114C73.2544 72.8443 72.5167 73.1438 71.7474 73.1438C70.9782 73.1438 70.2405 72.8443 69.6965 72.3114C69.1526 71.7784 68.847 71.0555 68.847 70.3018C68.847 69.5481 69.1526 68.8252 69.6965 68.2922C70.2405 67.7592 70.9782 67.4598 71.7474 67.4598Z" fill="#005275"/>
<path fill-rule="evenodd" clip-rule="evenodd" d="M85.1256 56.6979C85.0113 56.6983 84.8998 56.7334 84.8066 56.7983L76.6418 61.1408C76.9593 62.2503 77.2903 63.3519 77.6666 64.4288L81.0929 65.4235L85.4934 57.4807C85.6288 57.2197 85.6527 57.0435 85.4509 56.8434C85.3503 56.7437 85.2374 56.7001 85.1256 56.6979ZM58.3256 56.7005C58.2243 56.7108 58.128 56.7593 58.0356 56.8502C57.8508 57.0321 57.9033 57.3 58.0078 57.4932L62.4179 65.4538C63.5444 65.1442 64.6655 64.8217 65.7669 64.4546L66.7805 61.1037C64.07 59.66 61.3595 58.2125 58.6474 56.7786C58.5333 56.718 58.427 56.6907 58.3256 56.7005ZM81.0945 75.0957C79.9421 75.4109 78.8012 75.7398 77.6914 76.1165C77.3615 77.2249 77.0223 78.3313 76.6851 79.4378L84.831 83.7713C85.0974 83.9039 85.2772 83.9274 85.4814 83.7296C85.6852 83.5322 85.6578 83.2877 85.5274 83.0983L81.0945 75.0957ZM62.3812 75.1283C60.9 77.7974 59.4166 80.4655 57.9455 83.1362C57.8229 83.3597 57.8334 83.5553 58.019 83.7364C58.2046 83.9175 58.478 83.866 58.6752 83.7637L66.7994 79.4424C66.4792 78.3223 66.1455 77.2078 65.7653 76.1127C64.6361 75.7906 63.5088 75.4583 62.3812 75.1283Z" fill="#005275"/>
</g>
<defs>
<clipPath id="clip0_2_756">
<rect width="38.6719" height="37.893" fill="white" transform="translate(52.4109 51.355)"/>
</clipPath>
</defs>
</svg>
