<svg width="261" height="84" viewBox="0 0 261 84" fill="none" xmlns="http://www.w3.org/2000/svg">
<path d="M42.4502 79.208L38.8374 65.4904L42.4502 65.7854V79.208Z" fill="white"/>
<path d="M80.5351 41.3003L66.5355 37.7603L66.8366 41.3003L80.5351 41.3003Z" fill="white"/>
<path d="M3.91422 41.3003L17.9138 37.7603L17.6128 41.3003L3.91422 41.3003Z" fill="white"/>
<path d="M66.5661 45.1593C65.8063 50.1575 63.4682 54.797 59.88 58.4265C56.2918 62.0561 51.4379 64.5879 46.3638 65.4909L46.3638 61.3609C50.6078 60.6056 53.9779 58.7087 56.979 55.6729C59.9802 52.6372 61.9853 49.316 62.6207 45.1356L66.5661 45.1593Z" fill="white"/>
<path d="M46.3639 17.7C52.05 18.6568 57.179 21.5888 60.9252 25.8881C64.6713 30.1874 66.7625 35.6364 66.8356 41.2891L62.7969 41.3392C62.7358 36.6113 60.9868 32.0537 57.8535 28.4579C54.7202 24.862 51.1197 22.7778 46.3639 21.9775L46.3639 17.7Z" fill="white"/>
<path d="M42.4496 65.7857C36.8042 65.8209 31.1733 63.9588 26.759 60.5103C22.3446 57.0618 18.3655 51.0358 17.4623 45.1357L21.5269 45.1357C22.5495 49.6527 25.5846 54.5315 29.2768 57.4158C32.9689 60.3001 37.7278 61.8326 42.4497 61.8031L42.4496 65.7857Z" fill="white"/>
<path d="M42.4502 3.98291L38.8374 17.7006L42.4502 17.4056V3.98291Z" fill="white"/>
<path d="M17.4633 41.2999C17.5029 38.1234 18.1806 34.9857 19.4578 32.0659C20.735 29.1461 22.5865 26.5013 24.9068 24.2827C27.2271 22.064 29.9707 20.3149 32.9808 19.1352C35.991 17.9554 39.2088 17.3682 42.4506 17.4071L42.4013 21.3643C39.6898 21.3319 36.9985 21.823 34.4808 22.8097C31.9631 23.7964 29.6684 25.2594 27.7277 27.1151C25.787 28.9708 24.2383 31.1828 23.1701 33.625C22.1019 36.0671 21.535 38.6915 21.5019 41.3483L17.4633 41.2999Z" fill="white"/>
<ellipse cx="42.4505" cy="0.88501" rx="0.903202" ry="0.88501" fill="white"/>
<ellipse cx="42.4505" cy="82.3064" rx="0.903202" ry="0.88501" fill="white"/>
<ellipse cx="83.6965" cy="41.3005" rx="0.903202" ry="0.88501" fill="white"/>
<ellipse cx="0.903202" cy="41.3005" rx="0.903202" ry="0.88501" fill="white"/>
<g clip-path="url(#clip0_47_59)">
<path fill-rule="evenodd" clip-rule="evenodd" d="M42.4385 30.3472C42.2688 30.3463 42.1756 30.4597 42.1495 30.5925L39.6514 38.8525C36.8324 39.67 34.011 40.4838 31.1968 41.3082C31.0504 41.3513 30.9708 41.4369 30.9712 41.5889C30.9717 41.7407 31.1078 41.8315 31.2341 41.8696L39.6429 44.3107C40.4804 47.0825 41.3132 49.8566 42.1576 52.6235C42.2015 52.767 42.2889 52.845 42.444 52.8445C42.5989 52.8441 42.6916 52.7107 42.7305 52.5869L45.2303 44.3195L53.6768 41.8674C53.8448 41.8138 53.9301 41.7499 53.9308 41.5835C53.9319 41.4172 53.8162 41.3259 53.6807 41.3004L45.2222 38.8442L42.7282 30.5963C42.6735 30.4317 42.6083 30.3481 42.4385 30.3474M42.4511 39.9143C42.9063 39.9143 43.3427 40.0915 43.6646 40.4068C43.9864 40.7222 44.1672 41.1499 44.1672 41.5959C44.1672 42.0418 43.9864 42.4695 43.6646 42.7849C43.3427 43.1002 42.9063 43.2774 42.4511 43.2774C41.996 43.2774 41.5595 43.1002 41.2377 42.7849C40.9158 42.4695 40.735 42.0418 40.735 41.5959C40.735 41.1499 40.9158 40.7222 41.2377 40.4068C41.5595 40.0915 41.996 39.9143 42.4511 39.9143Z" fill="white"/>
<path fill-rule="evenodd" clip-rule="evenodd" d="M50.3667 33.5464C50.299 33.5466 50.2331 33.5674 50.1779 33.6058L45.347 36.1752C45.5349 36.8316 45.7307 37.4834 45.9534 38.1206L47.9806 38.7091L50.5843 34.0096C50.6643 33.8551 50.6785 33.7509 50.5591 33.6325C50.4996 33.5735 50.4328 33.5477 50.3667 33.5464ZM34.5098 33.548C34.4499 33.554 34.3929 33.5827 34.3382 33.6365C34.2288 33.7441 34.26 33.9026 34.3217 34.017L36.9311 38.727C37.5976 38.5439 38.261 38.3531 38.9126 38.1358L39.5123 36.1532C37.9086 35.299 36.3049 34.4425 34.7002 33.5941C34.6327 33.5583 34.5698 33.5421 34.5098 33.548ZM47.9815 44.4319C47.2997 44.6184 46.6247 44.813 45.968 45.0359C45.7728 45.6917 45.5722 46.3463 45.3726 47.001L50.1923 49.565C50.35 49.6435 50.4564 49.6574 50.5772 49.5403C50.6978 49.4235 50.6815 49.2789 50.6044 49.1668L47.9815 44.4319ZM36.9094 44.4511C36.033 46.0304 35.1553 47.609 34.2849 49.1892C34.2124 49.3215 34.2186 49.4372 34.3284 49.5444C34.4382 49.6515 34.6 49.621 34.7167 49.5605L39.5235 47.0037C39.3341 46.341 39.1366 45.6816 38.9117 45.0336C38.2436 44.8431 37.5766 44.6464 36.9094 44.4511Z" fill="white"/>
</g>
<path d="M97.2174 40.1055H93.9613V26.1378H97.8462L102.18 34.8732L106.649 26.1378H110.534V40.1055H107.278V29.5961L103.438 37.0739H100.968L97.2174 29.6185V40.1055ZM119.816 36.0185H125.16L122.488 28.3385L119.816 36.0185ZM126.575 40.1055L125.61 37.3434H119.344L118.379 40.1055H114.853L120.198 26.1378H124.779L130.146 40.1055H126.575ZM138.088 27.4627V33.7729H142.714C143.014 33.7729 143.201 33.728 143.276 33.6381C143.366 33.5483 143.41 33.3612 143.41 33.0767V28.1589C143.41 27.8595 143.366 27.6723 143.276 27.5975C143.201 27.5076 143.014 27.4627 142.714 27.4627H138.088ZM138.088 35.0978V40.1055H134.451V26.1378H145.252C146.435 26.1378 147.026 26.7292 147.026 27.9119V33.3238C147.026 34.5064 146.435 35.0978 145.252 35.0978H144.152L147.318 40.1055H143.545L140.536 35.0978H138.088ZM164.475 31.0557H160.837V28.1589C160.837 27.8595 160.792 27.6723 160.702 27.5975C160.612 27.5076 160.425 27.4627 160.141 27.4627H156.503C156.219 27.4627 156.031 27.5076 155.942 27.5975C155.852 27.6723 155.807 27.8595 155.807 28.1589V38.0844C155.807 38.3838 155.852 38.5785 155.942 38.6683C156.031 38.7431 156.219 38.7806 156.503 38.7806H160.141C160.425 38.7806 160.612 38.7431 160.702 38.6683C160.792 38.5785 160.837 38.3838 160.837 38.0844V35.2101H164.475V38.3314C164.475 39.5141 163.884 40.1055 162.701 40.1055H153.943C152.76 40.1055 152.169 39.5141 152.169 38.3314V27.9119C152.169 26.7292 152.76 26.1378 153.943 26.1378H162.701C163.884 26.1378 164.475 26.7292 164.475 27.9119V31.0557ZM181.627 27.9119V38.3314C181.627 39.5141 181.036 40.1055 179.853 40.1055H171.118C169.935 40.1055 169.344 39.5141 169.344 38.3314V27.9119C169.344 26.7292 169.935 26.1378 171.118 26.1378H179.853C181.036 26.1378 181.627 26.7292 181.627 27.9119ZM178.012 38.0844V28.1589C178.012 27.8595 177.967 27.6723 177.877 27.5975C177.787 27.5076 177.6 27.4627 177.315 27.4627H173.678C173.393 27.4627 173.206 27.5076 173.116 27.5975C173.026 27.6723 172.981 27.8595 172.981 28.1589V38.0844C172.981 38.3838 173.026 38.5785 173.116 38.6683C173.206 38.7431 173.393 38.7806 173.678 38.7806H177.315C177.6 38.7806 177.787 38.7431 177.877 38.6683C177.967 38.5785 178.012 38.3838 178.012 38.0844ZM204.301 33.5259V28.1589C204.301 27.8595 204.256 27.6723 204.167 27.5975C204.092 27.5076 203.905 27.4627 203.605 27.4627H198.979V34.222H203.605C203.905 34.222 204.092 34.1771 204.167 34.0873C204.256 33.9974 204.301 33.8103 204.301 33.5259ZM195.341 26.1378H206.143C207.325 26.1378 207.917 26.7292 207.917 27.9119V33.7729C207.917 34.9556 207.325 35.5469 206.143 35.5469H198.979V40.1055H195.341V26.1378ZM224.927 27.9119V38.3314C224.927 39.5141 224.335 40.1055 223.153 40.1055H214.417C213.235 40.1055 212.643 39.5141 212.643 38.3314V27.9119C212.643 26.7292 213.235 26.1378 214.417 26.1378H223.153C224.335 26.1378 224.927 26.7292 224.927 27.9119ZM221.311 38.0844V28.1589C221.311 27.8595 221.266 27.6723 221.177 27.5975C221.087 27.5076 220.9 27.4627 220.615 27.4627H216.977C216.693 27.4627 216.506 27.5076 216.416 27.5975C216.326 27.6723 216.281 27.8595 216.281 28.1589V38.0844C216.281 38.3838 216.326 38.5785 216.416 38.6683C216.506 38.7431 216.693 38.7806 216.977 38.7806H220.615C220.9 38.7806 221.087 38.7431 221.177 38.6683C221.266 38.5785 221.311 38.3838 221.311 38.0844ZM234.096 38.7806H240.833V40.1055H230.458V26.1378H234.096V38.7806ZM257.28 27.9119V38.3314C257.28 39.5141 256.689 40.1055 255.506 40.1055H246.771C245.588 40.1055 244.997 39.5141 244.997 38.3314V27.9119C244.997 26.7292 245.588 26.1378 246.771 26.1378H255.506C256.689 26.1378 257.28 26.7292 257.28 27.9119ZM253.665 38.0844V28.1589C253.665 27.8595 253.62 27.6723 253.53 27.5975C253.44 27.5076 253.253 27.4627 252.968 27.4627H249.331C249.046 27.4627 248.859 27.5076 248.769 27.5975C248.679 27.6723 248.634 27.8595 248.634 28.1589V38.0844C248.634 38.3838 248.679 38.5785 248.769 38.6683C248.859 38.7431 249.046 38.7806 249.331 38.7806H252.968C253.253 38.7806 253.44 38.7431 253.53 38.6683C253.62 38.5785 253.665 38.3838 253.665 38.0844ZM105.032 46.1378V47.4627H100.451V60.1055H96.8357V47.4627H92.2995V46.1378H105.032ZM112.712 47.4627V53.7729H117.338C117.638 53.7729 117.825 53.728 117.9 53.6381C117.989 53.5483 118.034 53.3612 118.034 53.0767V48.1589C118.034 47.8595 117.989 47.6723 117.9 47.5975C117.825 47.5076 117.638 47.4627 117.338 47.4627H112.712ZM112.712 55.0978V60.1055H109.074V46.1378H119.876C121.058 46.1378 121.65 46.7292 121.65 47.9119V53.3238C121.65 54.5064 121.058 55.0978 119.876 55.0978H118.775L121.942 60.1055H118.169L115.16 55.0978H112.712ZM130.543 56.0185H135.888L133.215 48.3385L130.543 56.0185ZM137.302 60.1055L136.337 57.3434H130.071L129.106 60.1055H125.58L130.925 46.1378H135.506L140.873 60.1055H137.302ZM155.148 46.1378H158.786L153.531 60.1055H149.085L143.853 46.1378H147.513L151.308 57.7027L155.148 46.1378ZM166.914 58.7806H174.167V60.1055H163.164V46.1378H173.875V47.4627H166.914V52.2908H172.954V53.6157H166.914V58.7806ZM182.55 58.7806H189.287V60.1055H178.913V46.1378H182.55V58.7806Z" fill="white"/>
<defs>
<clipPath id="clip0_47_59">
<rect width="22.8811" height="22.4202" fill="white" transform="translate(31.0102 30.3857)"/>
</clipPath>
</defs>
</svg>
