<svg width="26" height="26" viewBox="0 0 26 26" fill="none" xmlns="http://www.w3.org/2000/svg">
<g clip-path="url(#clip0_47_79)">
<path d="M15.1707 12.7739L12.1293 11.3547C11.8639 11.2315 11.6458 11.3696 11.6458 11.6634V14.3366C11.6458 14.6304 11.8639 14.7685 12.1293 14.6453L15.1694 13.2261C15.4361 13.1016 15.4361 12.8984 15.1707 12.7739ZM13 0C5.82021 0 0 5.82021 0 13C0 20.1798 5.82021 26 13 26C20.1798 26 26 20.1798 26 13C26 5.82021 20.1798 0 13 0ZM13 18.2812C6.34563 18.2812 6.22917 17.6814 6.22917 13C6.22917 8.31865 6.34563 7.71875 13 7.71875C19.6544 7.71875 19.7708 8.31865 19.7708 13C19.7708 17.6814 19.6544 18.2812 13 18.2812Z" fill="white"/>
</g>
<defs>
<clipPath id="clip0_47_79">
<rect width="26" height="26" fill="white"/>
</clipPath>
</defs>
</svg>
